<svg xmlns="http://www.w3.org/2000/svg" width="60" height="60" viewBox="0 0 60 60">
  <defs>
    <pattern id="pattern" width="60" height="60" patternUnits="userSpaceOnUse">
      <!-- Small circles -->
      <circle cx="10" cy="10" r="1.5" fill="white" opacity="0.3" />
      <circle cx="30" cy="10" r="1.5" fill="white" opacity="0.3" />
      <circle cx="50" cy="10" r="1.5" fill="white" opacity="0.3" />
      <circle cx="10" cy="30" r="1.5" fill="white" opacity="0.3" />
      <circle cx="30" cy="30" r="1.5" fill="white" opacity="0.3" />
      <circle cx="50" cy="30" r="1.5" fill="white" opacity="0.3" />
      <circle cx="10" cy="50" r="1.5" fill="white" opacity="0.3" />
      <circle cx="30" cy="50" r="1.5" fill="white" opacity="0.3" />
      <circle cx="50" cy="50" r="1.5" fill="white" opacity="0.3" />
      
      <!-- Dots grid -->
      <circle cx="5" cy="5" r="0.75" fill="white" opacity="0.2" />
      <circle cx="15" cy="5" r="0.75" fill="white" opacity="0.2" />
      <circle cx="25" cy="5" r="0.75" fill="white" opacity="0.2" />
      <circle cx="35" cy="5" r="0.75" fill="white" opacity="0.2" />
      <circle cx="45" cy="5" r="0.75" fill="white" opacity="0.2" />
      <circle cx="55" cy="5" r="0.75" fill="white" opacity="0.2" />
      
      <circle cx="5" cy="15" r="0.75" fill="white" opacity="0.2" />
      <circle cx="15" cy="15" r="0.75" fill="white" opacity="0.2" />
      <circle cx="25" cy="15" r="0.75" fill="white" opacity="0.2" />
      <circle cx="35" cy="15" r="0.75" fill="white" opacity="0.2" />
      <circle cx="45" cy="15" r="0.75" fill="white" opacity="0.2" />
      <circle cx="55" cy="15" r="0.75" fill="white" opacity="0.2" />
      
      <circle cx="5" cy="25" r="0.75" fill="white" opacity="0.2" />
      <circle cx="15" cy="25" r="0.75" fill="white" opacity="0.2" />
      <circle cx="25" cy="25" r="0.75" fill="white" opacity="0.2" />
      <circle cx="35" cy="25" r="0.75" fill="white" opacity="0.2" />
      <circle cx="45" cy="25" r="0.75" fill="white" opacity="0.2" />
      <circle cx="55" cy="25" r="0.75" fill="white" opacity="0.2" />
      
      <circle cx="5" cy="35" r="0.75" fill="white" opacity="0.2" />
      <circle cx="15" cy="35" r="0.75" fill="white" opacity="0.2" />
      <circle cx="25" cy="35" r="0.75" fill="white" opacity="0.2" />
      <circle cx="35" cy="35" r="0.75" fill="white" opacity="0.2" />
      <circle cx="45" cy="35" r="0.75" fill="white" opacity="0.2" />
      <circle cx="55" cy="35" r="0.75" fill="white" opacity="0.2" />
      
      <circle cx="5" cy="45" r="0.75" fill="white" opacity="0.2" />
      <circle cx="15" cy="45" r="0.75" fill="white" opacity="0.2" />
      <circle cx="25" cy="45" r="0.75" fill="white" opacity="0.2" />
      <circle cx="35" cy="45" r="0.75" fill="white" opacity="0.2" />
      <circle cx="45" cy="45" r="0.75" fill="white" opacity="0.2" />
      <circle cx="55" cy="45" r="0.75" fill="white" opacity="0.2" />
      
      <circle cx="5" cy="55" r="0.75" fill="white" opacity="0.2" />
      <circle cx="15" cy="55" r="0.75" fill="white" opacity="0.2" />
      <circle cx="25" cy="55" r="0.75" fill="white" opacity="0.2" />
      <circle cx="35" cy="55" r="0.75" fill="white" opacity="0.2" />
      <circle cx="45" cy="55" r="0.75" fill="white" opacity="0.2" />
      <circle cx="55" cy="55" r="0.75" fill="white" opacity="0.2" />
      
      <!-- Cross lines -->
      <line x1="0" y1="20" x2="60" y2="20" stroke="white" stroke-width="0.5" opacity="0.1" />
      <line x1="0" y1="40" x2="60" y2="40" stroke="white" stroke-width="0.5" opacity="0.1" />
      <line x1="20" y1="0" x2="20" y2="60" stroke="white" stroke-width="0.5" opacity="0.1" />
      <line x1="40" y1="0" x2="40" y2="60" stroke="white" stroke-width="0.5" opacity="0.1" />
    </pattern>
  </defs>
  
  <rect width="60" height="60" fill="url(#pattern)" />
</svg>