<svg xmlns="http://www.w3.org/2000/svg" viewBox="0 0 200 100" width="200" height="100">
  <rect x="0" y="0" width="200" height="100" fill="#F7F9FC" rx="5" ry="5" />
  <line x1="20" y1="80" x2="180" y2="80" stroke="#E2E8F0" stroke-width="1" />
  <line x1="20" y1="60" x2="180" y2="60" stroke="#E2E8F0" stroke-width="1" />
  <line x1="20" y1="40" x2="180" y2="40" stroke="#E2E8F0" stroke-width="1" />
  <line x1="20" y1="20" x2="180" y2="20" stroke="#E2E8F0" stroke-width="1" />
  
  <polyline points="20,75 40,68 60,60 80,55 100,45 120,40 140,30 160,25 180,20" 
    fill="none" stroke="#4F46E5" stroke-width="2" />
  
  <g fill="#4F46E5">
    <circle cx="20" cy="75" r="3" />
    <circle cx="40" cy="68" r="3" />
    <circle cx="60" cy="60" r="3" />
    <circle cx="80" cy="55" r="3" />
    <circle cx="100" cy="45" r="3" />
    <circle cx="120" cy="40" r="3" />
    <circle cx="140" cy="30" r="3" />
    <circle cx="160" cy="25" r="3" />
    <circle cx="180" cy="20" r="3" />
  </g>
  
  <text x="20" y="95" font-family="Arial" font-size="8" text-anchor="middle" fill="#718096">Day 1</text>
  <text x="60" y="95" font-family="Arial" font-size="8" text-anchor="middle" fill="#718096">Day 5</text>
  <text x="100" y="95" font-family="Arial" font-size="8" text-anchor="middle" fill="#718096">Day 10</text>
  <text x="140" y="95" font-family="Arial" font-size="8" text-anchor="middle" fill="#718096">Day 15</text>
  <text x="180" y="95" font-family="Arial" font-size="8" text-anchor="middle" fill="#718096">Day 21</text>
</svg>